<svg xmlns="http://www.w3.org/2000/svg" width="1200" height="500"><text x="30" y="30" font-size="12" fill="#111827">PCA coefficient heatmap</text><text x="10" y="80" font-size="12" fill="#111827">capacity__capacity_input_entropy</text><rect x="600" y="70" width="138" height="16" fill="#636363"/><rect x="740" y="70" width="138" height="16" fill="#3a3aff"/><rect x="880" y="70" width="138" height="16" fill="#3838ff"/><rect x="1020" y="70" width="138" height="16" fill="#e2e2e2"/><rect x="1160" y="70" width="138" height="16" fill="#fdfdff"/><text x="10" y="98" font-size="12" fill="#111827">capacity__capacity_output_entropy</text><rect x="600" y="88" width="138" height="16" fill="#626262"/><rect x="740" y="88" width="138" height="16" fill="#3333ff"/><rect x="880" y="88" width="138" height="16" fill="#4141ff"/><rect x="1020" y="88" width="138" height="16" fill="#dedede"/><rect x="1160" y="88" width="138" height="16" fill="#f5f5f5"/><text x="10" y="116" font-size="12" fill="#111827">capacity__capacity_repeat_ratio</text><rect x="600" y="106" width="138" height="16" fill="#bcbcbc"/><rect x="740" y="106" width="138" height="16" fill="#f9f9f9"/><rect x="880" y="106" width="138" height="16" fill="#131313"/><rect x="1020" y="106" width="138" height="16" fill="#e2e2e2"/><rect x="1160" y="106" width="138" height="16" fill="#252525"/><text x="10" y="134" font-size="12" fill="#111827">capacity__input_capacity_cv</text><rect x="600" y="124" width="138" height="16" fill="#aaaaff"/><rect x="740" y="124" width="138" height="16" fill="#9090ff"/><rect x="880" y="124" width="138" height="16" fill="#f3f3f3"/><rect x="1020" y="124" width="138" height="16" fill="#8a8a8a"/><rect x="1160" y="124" width="138" height="16" fill="#c9c9c9"/><text x="10" y="152" font-size="12" fill="#111827">capacity__output_capacity_cv</text><rect x="600" y="142" width="138" height="16" fill="#a8a8ff"/><rect x="740" y="142" width="138" height="16" fill="#8d8dff"/><rect x="880" y="142" width="138" height="16" fill="#fefeff"/><rect x="1020" y="142" width="138" height="16" fill="#878787"/><rect x="1160" y="142" width="138" height="16" fill="#aeaeae"/><text x="10" y="170" font-size="12" fill="#111827">capacity__output_capacity_mean</text><rect x="600" y="160" width="138" height="16" fill="#dedede"/><rect x="740" y="160" width="138" height="16" fill="#8686ff"/><rect x="880" y="160" width="138" height="16" fill="#e5e5e5"/><rect x="1020" y="160" width="138" height="16" fill="#b2b2b2"/><rect x="1160" y="160" width="138" height="16" fill="#919191"/><text x="10" y="188" font-size="12" fill="#111827">capacity__target_consumed_capacity</text><rect x="600" y="178" width="138" height="16" fill="#dbdbdb"/><rect x="740" y="178" width="138" height="16" fill="#a7a7ff"/><rect x="880" y="178" width="138" height="16" fill="#f6f6ff"/><rect x="1020" y="178" width="138" height="16" fill="#787878"/><rect x="1160" y="178" width="138" height="16" fill="#737373"/><text x="10" y="206" font-size="12" fill="#111827">capacity__target_net_capacity_delta</text><rect x="600" y="196" width="138" height="16" fill="#fcfcfc"/><rect x="740" y="196" width="138" height="16" fill="#fdfdff"/><rect x="880" y="196" width="138" height="16" fill="#d0d0ff"/><rect x="1020" y="196" width="138" height="16" fill="#b5b5ff"/><rect x="1160" y="196" width="138" height="16" fill="#4a4a4a"/><text x="10" y="224" font-size="12" fill="#111827">lifecycle__consumed_cell_count</text><rect x="600" y="214" width="138" height="16" fill="#e4e4e4"/><rect x="740" y="214" width="138" height="16" fill="#5a5a5a"/><rect x="880" y="214" width="138" height="16" fill="#7878ff"/><rect x="1020" y="214" width="138" height="16" fill="#535353"/><rect x="1160" y="214" width="138" height="16" fill="#a9a9a9"/><text x="10" y="242" font-size="12" fill="#111827">lifecycle__long_lived_cell_ratio</text><rect x="600" y="232" width="138" height="16" fill="#0404ff"/><rect x="740" y="232" width="138" height="16" fill="#adadff"/><rect x="880" y="232" width="138" height="16" fill="#c5c5ff"/><rect x="1020" y="232" width="138" height="16" fill="#e8e8ff"/><rect x="1160" y="232" width="138" height="16" fill="#d8d8ff"/><text x="10" y="260" font-size="12" fill="#111827">lifecycle__rapid_consumption_ratio</text><rect x="600" y="250" width="138" height="16" fill="#b0b0b0"/><rect x="740" y="250" width="138" height="16" fill="#d1d1ff"/><rect x="880" y="250" width="138" height="16" fill="#545454"/><rect x="1020" y="250" width="138" height="16" fill="#434343"/><rect x="1160" y="250" width="138" height="16" fill="#b8b8ff"/><text x="10" y="278" font-size="12" fill="#111827">lifecycle__same_block_consumption_ratio</text><rect x="600" y="268" width="138" height="16" fill="#e3e3ff"/><rect x="740" y="268" width="138" height="16" fill="#cfcfff"/><rect x="880" y="268" width="138" height="16" fill="#c8c8c8"/><rect x="1020" y="268" width="138" height="16" fill="#161616"/><rect x="1160" y="268" width="138" height="16" fill="#0000ff"/><text x="10" y="296" font-size="12" fill="#111827">lifecycle__short_lived_cell_ratio</text><rect x="600" y="286" width="138" height="16" fill="#030303"/><rect x="740" y="286" width="138" height="16" fill="#c9c9c9"/><rect x="880" y="286" width="138" height="16" fill="#7b7b7b"/><rect x="1020" y="286" width="138" height="16" fill="#cfcfcf"/><rect x="1160" y="286" width="138" height="16" fill="#f0f0ff"/><text x="10" y="314" font-size="12" fill="#111827">lineage__branch_count</text><rect x="600" y="304" width="138" height="16" fill="#e6e6e6"/><rect x="740" y="304" width="138" height="16" fill="#818181"/><rect x="880" y="304" width="138" height="16" fill="#9090ff"/><rect x="1020" y="304" width="138" height="16" fill="#bebebe"/><rect x="1160" y="304" width="138" height="16" fill="#bcbcff"/><text x="10" y="332" font-size="12" fill="#111827">lineage__continuation_count</text><rect x="600" y="322" width="138" height="16" fill="#6f6fff"/><rect x="740" y="322" width="138" height="16" fill="#f5f5ff"/><rect x="880" y="322" width="138" height="16" fill="#fafafa"/><rect x="1020" y="322" width="138" height="16" fill="#929292"/><rect x="1160" y="322" width="138" height="16" fill="#cecece"/><text x="10" y="350" font-size="12" fill="#111827">lineage__lineage_depth</text><rect x="600" y="340" width="138" height="16" fill="#7373ff"/><rect x="740" y="340" width="138" height="16" fill="#fafafa"/><rect x="880" y="340" width="138" height="16" fill="#f2f2f2"/><rect x="1020" y="340" width="138" height="16" fill="#626262"/><rect x="1160" y="340" width="138" height="16" fill="#8a8a8a"/><text x="10" y="368" font-size="12" fill="#111827">lineage__lineage_repetition</text><rect x="600" y="358" width="138" height="16" fill="#cecece"/><rect x="740" y="358" width="138" height="16" fill="#2c2c2c"/><rect x="880" y="358" width="138" height="16" fill="#9090ff"/><rect x="1020" y="358" width="138" height="16" fill="#7b7b7b"/><rect x="1160" y="358" width="138" height="16" fill="#e7e7e7"/><text x="10" y="386" font-size="12" fill="#111827">lineage__merge_count</text><rect x="600" y="376" width="138" height="16" fill="#fbfbff"/><rect x="740" y="376" width="138" height="16" fill="#787878"/><rect x="880" y="376" width="138" height="16" fill="#7c7cff"/><rect x="1020" y="376" width="138" height="16" fill="#adadad"/><rect x="1160" y="376" width="138" height="16" fill="#afafaf"/><text x="650" y="58" font-size="12" fill="#111827">PC1</text><text x="790" y="58" font-size="12" fill="#111827">PC2</text><text x="930" y="58" font-size="12" fill="#111827">PC3</text><text x="1070" y="58" font-size="12" fill="#111827">PC4</text><text x="1210" y="58" font-size="12" fill="#111827">PC5</text></svg>
