<svg xmlns="http://www.w3.org/2000/svg" width="1000" height="700"><text x="30" y="30" font-size="12" fill="#111827">Uncolored PCA scores: PC1 vs PC3</text><polyline points="70,630 930,630" fill="none" stroke="#9ca3af" stroke-width="1"/><polyline points="70,70 70,630" fill="none" stroke="#9ca3af" stroke-width="1"/><circle cx="855.8514376466252" cy="630.0" r="2" fill="#374151"/><circle cx="495.06122559870494" cy="397.2566079836139" r="2" fill="#374151"/><circle cx="465.0882904458985" cy="297.864881752277" r="2" fill="#374151"/><circle cx="494.41724305052077" cy="321.98131985461004" r="2" fill="#374151"/><circle cx="321.33119836486486" cy="387.5870772312808" r="2" fill="#374151"/><circle cx="372.8898436041149" cy="406.2855440127481" r="2" fill="#374151"/><circle cx="930.0" cy="570.5251718166438" r="2" fill="#374151"/><circle cx="686.1298348610309" cy="271.62818569469744" r="2" fill="#374151"/><circle cx="527.4780343120394" cy="313.916319406609" r="2" fill="#374151"/><circle cx="764.9035755444247" cy="274.991628291817" r="2" fill="#374151"/><circle cx="482.72147082834056" cy="273.02388645705156" r="2" fill="#374151"/><circle cx="581.0160788696426" cy="242.32538022927577" r="2" fill="#374151"/><circle cx="598.7189968798114" cy="234.75198106143552" r="2" fill="#374151"/><circle cx="498.5390488596768" cy="274.81876795828106" r="2" fill="#374151"/><circle cx="554.6667652524172" cy="257.11213136874153" r="2" fill="#374151"/><circle cx="436.19291410244335" cy="285.8320995330721" r="2" fill="#374151"/><circle cx="727.4513119239128" cy="283.08879971778646" r="2" fill="#374151"/><circle cx="718.8648653715888" cy="259.32250291046597" r="2" fill="#374151"/><circle cx="532.8419052305426" cy="312.21925042745517" r="2" fill="#374151"/><circle cx="667.5629987565354" cy="243.92906609866753" r="2" fill="#374151"/><circle cx="321.77240972030376" cy="315.611668870173" r="2" fill="#374151"/><circle cx="697.197536203637" cy="261.8496118458635" r="2" fill="#374151"/><circle cx="446.0048177947654" cy="272.7221548075791" r="2" fill="#374151"/><circle cx="444.730447205217" cy="346.4185643218378" r="2" fill="#374151"/><circle cx="683.7360444803204" cy="272.1098866005545" r="2" fill="#374151"/><circle cx="486.22522134652803" cy="272.73839209198235" r="2" fill="#374151"/><circle cx="555.2623873078799" cy="261.00431450624376" r="2" fill="#374151"/><circle cx="342.75975208155876" cy="70.0" r="2" fill="#374151"/><circle cx="129.85923787083286" cy="275.5018292853253" r="2" fill="#374151"/><circle cx="170.58314285668564" cy="324.44071468368304" r="2" fill="#374151"/><circle cx="158.87322069839507" cy="337.1163218423972" r="2" fill="#374151"/><circle cx="170.79702945868826" cy="281.2780434406507" r="2" fill="#374151"/><circle cx="131.2897473716954" cy="278.7863316880153" r="2" fill="#374151"/><circle cx="183.39053418341467" cy="274.2494298331299" r="2" fill="#374151"/><circle cx="128.41924079514285" cy="267.14471741494435" r="2" fill="#374151"/><circle cx="183.47151783513112" cy="203.30622791952993" r="2" fill="#374151"/><circle cx="154.53053110486388" cy="248.63071468861494" r="2" fill="#374151"/><circle cx="219.73744482836656" cy="346.34739645265915" r="2" fill="#374151"/><circle cx="191.1493854036405" cy="292.760399754032" r="2" fill="#374151"/><circle cx="518.5245871138195" cy="89.48560965306797" r="2" fill="#374151"/><circle cx="446.79009491155676" cy="290.8248970837481" r="2" fill="#374151"/><circle cx="540.4464555430804" cy="259.6636044719107" r="2" fill="#374151"/><circle cx="594.3872635430536" cy="195.56258441186304" r="2" fill="#374151"/><circle cx="137.2095801280441" cy="263.6822654118574" r="2" fill="#374151"/><circle cx="384.40673782234325" cy="142.44885963542475" r="2" fill="#374151"/><circle cx="387.3422636263568" cy="170.49491212159046" r="2" fill="#374151"/><circle cx="450.1867982198693" cy="298.3395542243665" r="2" fill="#374151"/><circle cx="128.06298959258885" cy="319.035339888624" r="2" fill="#374151"/><circle cx="348.0521584967962" cy="252.29950122905808" r="2" fill="#374151"/><circle cx="190.1688853893221" cy="205.58612339963594" r="2" fill="#374151"/><circle cx="704.8250355127458" cy="276.1473507277853" r="2" fill="#374151"/><circle cx="173.51345694740274" cy="199.3603607807043" r="2" fill="#374151"/><circle cx="619.3150738587447" cy="222.48777991193225" r="2" fill="#374151"/><circle cx="160.40323010040828" cy="316.12373082328827" r="2" fill="#374151"/><circle cx="266.255632940577" cy="292.96461259877566" r="2" fill="#374151"/><circle cx="323.61800672449505" cy="235.13955314655072" r="2" fill="#374151"/><circle cx="304.94942539037163" cy="326.43809544666067" r="2" fill="#374151"/><circle cx="204.11547405969782" cy="315.1061605264462" r="2" fill="#374151"/><circle cx="205.53161846520132" cy="274.16536885967287" r="2" fill="#374151"/><circle cx="312.86976223287496" cy="256.13054316680604" r="2" fill="#374151"/><circle cx="70.0" cy="339.7670477218901" r="2" fill="#374151"/><circle cx="149.76246069315957" cy="198.82095023026528" r="2" fill="#374151"/><circle cx="117.32300736399725" cy="257.7196172692059" r="2" fill="#374151"/><circle cx="409.687874847758" cy="307.3692287386955" r="2" fill="#374151"/><circle cx="550.1955162438799" cy="249.34629423883916" r="2" fill="#374151"/><circle cx="117.36074890300665" cy="306.70444130917366" r="2" fill="#374151"/><circle cx="118.34616683235197" cy="250.66962117032602" r="2" fill="#374151"/><circle cx="351.1240330771474" cy="129.49924885106003" r="2" fill="#374151"/><circle cx="369.10883391125844" cy="266.21885250374777" r="2" fill="#374151"/><circle cx="204.0312625145981" cy="462.7429569845485" r="2" fill="#374151"/><circle cx="443.1791370485693" cy="74.64651580113173" r="2" fill="#374151"/><circle cx="364.4613508650435" cy="77.06996449765529" r="2" fill="#374151"/><circle cx="150.428213529309" cy="255.6255770594338" r="2" fill="#374151"/><circle cx="167.81556088489756" cy="246.1979968739239" r="2" fill="#374151"/><circle cx="462.8394313642337" cy="234.42821630845424" r="2" fill="#374151"/><circle cx="745.851792269835" cy="385.09063636608937" r="2" fill="#374151"/><circle cx="155.03857240690527" cy="256.54952355368715" r="2" fill="#374151"/><circle cx="189.87551005182178" cy="311.1468584893695" r="2" fill="#374151"/><circle cx="169.4611968762989" cy="297.3231747356564" r="2" fill="#374151"/><circle cx="530.3439623051534" cy="228.13447485404623" r="2" fill="#374151"/><circle cx="297.8255449565584" cy="184.18853677045024" r="2" fill="#374151"/><circle cx="225.07536385993595" cy="349.07875402723226" r="2" fill="#374151"/><circle cx="144.94200736655583" cy="340.5991467598179" r="2" fill="#374151"/><circle cx="197.43794107727086" cy="286.85786524898054" r="2" fill="#374151"/><circle cx="172.2534489484582" cy="354.6833479407749" r="2" fill="#374151"/><circle cx="622.1804898304238" cy="88.7354437442682" r="2" fill="#374151"/><circle cx="525.4202557762474" cy="186.57900403151416" r="2" fill="#374151"/><circle cx="565.4901970521144" cy="233.48066068738694" r="2" fill="#374151"/><circle cx="531.5036106124794" cy="227.08608834916532" r="2" fill="#374151"/><circle cx="536.3654322216036" cy="194.07248421597825" r="2" fill="#374151"/><circle cx="509.51129404950314" cy="206.88618609620073" r="2" fill="#374151"/><circle cx="169.90764082035219" cy="280.34786808822156" r="2" fill="#374151"/><circle cx="145.4874719858314" cy="280.4920147887013" r="2" fill="#374151"/><circle cx="511.359175242133" cy="123.98887490872107" r="2" fill="#374151"/><circle cx="122.99365811418124" cy="287.7383383780603" r="2" fill="#374151"/><circle cx="193.44622419626614" cy="161.04644005941526" r="2" fill="#374151"/><circle cx="400.0398986490623" cy="309.6568131639048" r="2" fill="#374151"/><circle cx="554.3714477418595" cy="237.44506400017798" r="2" fill="#374151"/><circle cx="155.95257989925094" cy="299.8835117106135" r="2" fill="#374151"/><circle cx="589.134193931049" cy="290.39322104066446" r="2" fill="#374151"/><circle cx="195.59422423634376" cy="201.05663751760846" r="2" fill="#374151"/><circle cx="227.23120913164686" cy="323.5901895840458" r="2" fill="#374151"/><circle cx="196.0001401347729" cy="328.16917340908077" r="2" fill="#374151"/><circle cx="177.44526335140512" cy="227.14571238432939" r="2" fill="#374151"/><circle cx="125.44988080370558" cy="285.77893330528207" r="2" fill="#374151"/><circle cx="173.39060705789944" cy="320.62561006844766" r="2" fill="#374151"/><circle cx="405.9611865911149" cy="310.99133143278044" r="2" fill="#374151"/><circle cx="639.4286268471378" cy="286.8391727312252" r="2" fill="#374151"/><circle cx="186.42135702601422" cy="313.72614802887773" r="2" fill="#374151"/><circle cx="317.1772420000407" cy="223.30593587785262" r="2" fill="#374151"/><circle cx="248.99212208434332" cy="335.49834865450674" r="2" fill="#374151"/><circle cx="540.0801125586618" cy="291.88882514932266" r="2" fill="#374151"/><circle cx="82.86366370249652" cy="411.43141104594423" r="2" fill="#374151"/><circle cx="167.58181531101724" cy="313.4985929391189" r="2" fill="#374151"/><circle cx="246.5944333597553" cy="242.71224024878632" r="2" fill="#374151"/><circle cx="75.36494287715118" cy="417.75113547818853" r="2" fill="#374151"/><circle cx="181.03864487248316" cy="395.3631902676176" r="2" fill="#374151"/><circle cx="331.16091733044664" cy="149.6767692783253" r="2" fill="#374151"/><circle cx="560.6876447738172" cy="322.2681801214052" r="2" fill="#374151"/><circle cx="431.0698651059751" cy="117.16158462989267" r="2" fill="#374151"/><circle cx="614.2169080598366" cy="195.83616401529673" r="2" fill="#374151"/><circle cx="501.233532138838" cy="261.1129047730727" r="2" fill="#374151"/><circle cx="181.1551446966178" cy="215.53122057320638" r="2" fill="#374151"/><circle cx="74.13679029599903" cy="362.2641790924977" r="2" fill="#374151"/><circle cx="301.81047238840904" cy="234.7657173465421" r="2" fill="#374151"/><circle cx="156.47881243124453" cy="376.8374475522415" r="2" fill="#374151"/><circle cx="559.9864185163037" cy="231.58101623725793" r="2" fill="#374151"/><circle cx="172.18317528951349" cy="319.1848591963053" r="2" fill="#374151"/><circle cx="203.410214507447" cy="240.14768367457873" r="2" fill="#374151"/><circle cx="404.26327520121566" cy="244.3745206729148" r="2" fill="#374151"/><circle cx="480.21382165104666" cy="239.7563707287245" r="2" fill="#374151"/><circle cx="437.4695650492675" cy="312.6678088574665" r="2" fill="#374151"/><circle cx="104.98654858595341" cy="383.8281936668277" r="2" fill="#374151"/><circle cx="341.24237725474615" cy="312.6967947755988" r="2" fill="#374151"/><circle cx="683.4592365951884" cy="273.2253371305622" r="2" fill="#374151"/><circle cx="130.08941501243913" cy="325.1191505728366" r="2" fill="#374151"/><circle cx="157.42250323932683" cy="340.3290010176127" r="2" fill="#374151"/><circle cx="172.30024712122926" cy="207.01001944504253" r="2" fill="#374151"/><circle cx="660.0646500628653" cy="235.73282831700794" r="2" fill="#374151"/><circle cx="182.46321468875084" cy="227.15184577467295" r="2" fill="#374151"/><circle cx="360.41244237505146" cy="99.5932204165664" r="2" fill="#374151"/><circle cx="286.950364860385" cy="294.93235597504116" r="2" fill="#374151"/><circle cx="504.14690110391365" cy="200.41519112057983" r="2" fill="#374151"/><circle cx="201.3173452524886" cy="320.74295600531997" r="2" fill="#374151"/><circle cx="132.7379884482958" cy="251.27527238310694" r="2" fill="#374151"/><circle cx="222.95032851886188" cy="257.015411974423" r="2" fill="#374151"/><circle cx="142.04927660303696" cy="318.13113820388116" r="2" fill="#374151"/><circle cx="221.4190662600973" cy="323.05491449677646" r="2" fill="#374151"/><circle cx="161.36150065238218" cy="180.00113529627492" r="2" fill="#374151"/><circle cx="158.0461607892287" cy="253.0444935268987" r="2" fill="#374151"/><circle cx="151.55113964130607" cy="227.48584101682104" r="2" fill="#374151"/><circle cx="147.26088776048195" cy="246.96477233355353" r="2" fill="#374151"/><circle cx="825.5035876420629" cy="608.1748148737692" r="2" fill="#374151"/><circle cx="290.9892959381569" cy="323.38481804044517" r="2" fill="#374151"/><circle cx="474.3141534542636" cy="345.2242622340361" r="2" fill="#374151"/><circle cx="131.22191908650672" cy="318.96665290156716" r="2" fill="#374151"/><circle cx="364.07771499549517" cy="242.68637281220504" r="2" fill="#374151"/><circle cx="146.37324693477257" cy="317.0760504125223" r="2" fill="#374151"/><circle cx="383.9808011883222" cy="119.5919815101376" r="2" fill="#374151"/><circle cx="188.38554757387638" cy="302.63618352567136" r="2" fill="#374151"/><circle cx="138.85855985757252" cy="235.5963033033662" r="2" fill="#374151"/><circle cx="161.64907648166331" cy="247.39554578712392" r="2" fill="#374151"/><circle cx="405.6182528149194" cy="85.7626695301094" r="2" fill="#374151"/><circle cx="113.40594247508574" cy="344.0983886326151" r="2" fill="#374151"/><circle cx="243.0579541085164" cy="268.24046235577697" r="2" fill="#374151"/><circle cx="468.67040668351495" cy="388.9251068926345" r="2" fill="#374151"/><circle cx="463.4216752397921" cy="389.1714309287669" r="2" fill="#374151"/><circle cx="527.0820078885395" cy="239.42492667063368" r="2" fill="#374151"/><circle cx="340.2505961808879" cy="328.48591010258053" r="2" fill="#374151"/><circle cx="514.3419243682856" cy="203.69886221813363" r="2" fill="#374151"/><circle cx="265.0776677714445" cy="356.3269313938167" r="2" fill="#374151"/><circle cx="450.6584817920903" cy="280.7012394168778" r="2" fill="#374151"/><text x="470" y="670" font-size="12" fill="#111827">PC1 score</text><text x="5" y="350" font-size="12" fill="#111827">PC3 score</text></svg>
