<svg xmlns="http://www.w3.org/2000/svg" width="1000" height="700"><text x="30" y="30" font-size="12" fill="#111827">Uncolored PCA scores: PC1 vs PC2</text><polyline points="70,630 930,630" fill="none" stroke="#9ca3af" stroke-width="1"/><polyline points="70,70 70,630" fill="none" stroke="#9ca3af" stroke-width="1"/><circle cx="75.04589849388803" cy="345.22995850960285" r="2" fill="#374151"/><circle cx="73.8669195967779" cy="445.6219198528846" r="2" fill="#374151"/><circle cx="97.99991253460284" cy="329.0558747443055" r="2" fill="#374151"/><circle cx="72.2996327824862" cy="443.42473670344623" r="2" fill="#374151"/><circle cx="80.50444709532533" cy="70.0" r="2" fill="#374151"/><circle cx="75.22248357201003" cy="278.5323541033151" r="2" fill="#374151"/><circle cx="73.6997164088028" cy="396.1521016058307" r="2" fill="#374151"/><circle cx="79.59293430867987" cy="407.76296582359726" r="2" fill="#374151"/><circle cx="78.18446773883633" cy="172.8021302030333" r="2" fill="#374151"/><circle cx="209.29663201007094" cy="415.35512747102877" r="2" fill="#374151"/><circle cx="127.10349989173785" cy="449.9793272727612" r="2" fill="#374151"/><circle cx="313.4357894663581" cy="506.843630924711" r="2" fill="#374151"/><circle cx="126.41453446973642" cy="430.42903361907304" r="2" fill="#374151"/><circle cx="81.59517902088008" cy="429.07073752495955" r="2" fill="#374151"/><circle cx="74.18793090430749" cy="343.1917903847657" r="2" fill="#374151"/><circle cx="97.0120654211184" cy="452.74388733184014" r="2" fill="#374151"/><circle cx="151.77771348220028" cy="432.3141211923558" r="2" fill="#374151"/><circle cx="92.88750431457551" cy="407.51748489679505" r="2" fill="#374151"/><circle cx="73.94469150635169" cy="399.81538862512764" r="2" fill="#374151"/><circle cx="195.48922580495002" cy="437.3495521796865" r="2" fill="#374151"/><circle cx="75.79112983205466" cy="244.61861570067538" r="2" fill="#374151"/><circle cx="92.88750431457551" cy="407.51748489679505" r="2" fill="#374151"/><circle cx="156.4909925772873" cy="409.240639195796" r="2" fill="#374151"/><circle cx="74.7264283668175" cy="257.7470288546328" r="2" fill="#374151"/><circle cx="79.59293430867987" cy="407.76296582359726" r="2" fill="#374151"/><circle cx="81.59517902088008" cy="429.07073752495955" r="2" fill="#374151"/><circle cx="72.82608892486468" cy="467.7112003097842" r="2" fill="#374151"/><circle cx="914.2117826844928" cy="95.15424765481862" r="2" fill="#374151"/><circle cx="97.53254115759638" cy="355.44947719206135" r="2" fill="#374151"/><circle cx="76.47837748200405" cy="393.3835512892137" r="2" fill="#374151"/><circle cx="76.75321521327521" cy="380.7361457458637" r="2" fill="#374151"/><circle cx="73.54334660722846" cy="477.5262075851512" r="2" fill="#374151"/><circle cx="71.30125062706664" cy="387.3487334885143" r="2" fill="#374151"/><circle cx="71.28223658707573" cy="390.7383890970132" r="2" fill="#374151"/><circle cx="71.43970185390167" cy="431.35353295668233" r="2" fill="#374151"/><circle cx="71.66476819983018" cy="407.10269260994653" r="2" fill="#374151"/><circle cx="96.15740169308192" cy="370.3932699950613" r="2" fill="#374151"/><circle cx="70.17237051354753" cy="425.5637650039878" r="2" fill="#374151"/><circle cx="122.9367674366464" cy="327.59201730100636" r="2" fill="#374151"/><circle cx="77.33328371032178" cy="212.94452415179887" r="2" fill="#374151"/><circle cx="74.27098501419047" cy="388.72166928331535" r="2" fill="#374151"/><circle cx="76.5975858240294" cy="391.78857650755276" r="2" fill="#374151"/><circle cx="100.66888857815583" cy="519.0855400266428" r="2" fill="#374151"/><circle cx="75.9835440961718" cy="385.06688499001416" r="2" fill="#374151"/><circle cx="104.49778457488523" cy="169.57387362504238" r="2" fill="#374151"/><circle cx="71.17774392524903" cy="504.0074758071579" r="2" fill="#374151"/><circle cx="91.22703846493658" cy="463.5297254332271" r="2" fill="#374151"/><circle cx="86.20967473694532" cy="255.3434057296056" r="2" fill="#374151"/><circle cx="81.44325579736585" cy="449.2970962705273" r="2" fill="#374151"/><circle cx="74.05389943807651" cy="452.05197545424005" r="2" fill="#374151"/><circle cx="146.36421426004586" cy="371.11885916179205" r="2" fill="#374151"/><circle cx="73.64089405877495" cy="391.8664985166498" r="2" fill="#374151"/><circle cx="74.42818400892834" cy="300.6225240674615" r="2" fill="#374151"/><circle cx="73.58837025690886" cy="417.6238112056086" r="2" fill="#374151"/><circle cx="74.47081418784465" cy="447.7278564338643" r="2" fill="#374151"/><circle cx="84.36814451578758" cy="376.3200526433294" r="2" fill="#374151"/><circle cx="104.469138443237" cy="429.2069198078956" r="2" fill="#374151"/><circle cx="71.64132845638822" cy="364.5006678270135" r="2" fill="#374151"/><circle cx="76.416472776005" cy="397.9633469493233" r="2" fill="#374151"/><circle cx="73.00680674766454" cy="278.95754148985185" r="2" fill="#374151"/><circle cx="71.53307845965877" cy="407.332303797063" r="2" fill="#374151"/><circle cx="72.75134541372441" cy="426.3902924795588" r="2" fill="#374151"/><circle cx="75.9443724245345" cy="74.26056906101007" r="2" fill="#374151"/><circle cx="225.4065211532031" cy="406.29194236566764" r="2" fill="#374151"/><circle cx="77.46310678877448" cy="387.2458178338451" r="2" fill="#374151"/><circle cx="75.14415201635687" cy="455.67478285677157" r="2" fill="#374151"/><circle cx="73.0644120882044" cy="413.16007877215327" r="2" fill="#374151"/><circle cx="75.47803939379193" cy="402.9424090700868" r="2" fill="#374151"/><circle cx="71.68121895919708" cy="319.6363565734566" r="2" fill="#374151"/><circle cx="579.908530498688" cy="501.6954680706981" r="2" fill="#374151"/><circle cx="72.63673062668413" cy="452.2341650302702" r="2" fill="#374151"/><circle cx="73.49371316200184" cy="337.0248235253362" r="2" fill="#374151"/><circle cx="76.59699173550574" cy="391.6146273615143" r="2" fill="#374151"/><circle cx="71.04185820923438" cy="397.77865048876197" r="2" fill="#374151"/><circle cx="88.81823386325581" cy="411.5851187787825" r="2" fill="#374151"/><circle cx="72.63673062668413" cy="452.2341650302702" r="2" fill="#374151"/><circle cx="71.40409282272995" cy="391.2315034506987" r="2" fill="#374151"/><circle cx="71.84682409350755" cy="338.20842453126636" r="2" fill="#374151"/><circle cx="70.1285020416901" cy="427.5574875029161" r="2" fill="#374151"/><circle cx="122.02298422067815" cy="381.64777436162694" r="2" fill="#374151"/><circle cx="75.38056426653685" cy="455.16840585306966" r="2" fill="#374151"/><circle cx="72.96365260252091" cy="373.4216917430284" r="2" fill="#374151"/><circle cx="72.75134541372441" cy="426.3902924795588" r="2" fill="#374151"/><circle cx="73.84700358941123" cy="344.7455826333627" r="2" fill="#374151"/><circle cx="178.9332256252889" cy="322.27346322866686" r="2" fill="#374151"/><circle cx="75.21931175896137" cy="208.13629003503706" r="2" fill="#374151"/><circle cx="108.39269243632039" cy="318.50753135411424" r="2" fill="#374151"/><circle cx="72.65964204516513" cy="413.5056479025354" r="2" fill="#374151"/><circle cx="75.32793978835626" cy="448.16126948554745" r="2" fill="#374151"/><circle cx="71.90182131306254" cy="319.79738039253294" r="2" fill="#374151"/><circle cx="157.34110523829804" cy="342.7339298026332" r="2" fill="#374151"/><circle cx="208.18374456779975" cy="179.85600487597378" r="2" fill="#374151"/><circle cx="139.23987816230095" cy="288.3201654090278" r="2" fill="#374151"/><circle cx="75.04589849388803" cy="345.22995850960285" r="2" fill="#374151"/><circle cx="72.31222320203815" cy="412.5928502171278" r="2" fill="#374151"/><circle cx="81.44332721805148" cy="178.89748702878177" r="2" fill="#374151"/><circle cx="93.83392504699893" cy="228.23942305919127" r="2" fill="#374151"/><circle cx="76.59699059019601" cy="391.61457693132286" r="2" fill="#374151"/><circle cx="89.89708760492923" cy="441.00509166884166" r="2" fill="#374151"/><circle cx="76.60597563813319" cy="394.0524837669076" r="2" fill="#374151"/><circle cx="73.5351255485964" cy="381.55401823202646" r="2" fill="#374151"/><circle cx="102.34513669413857" cy="420.9253438363055" r="2" fill="#374151"/><circle cx="77.90723832276778" cy="335.9608157055453" r="2" fill="#374151"/><circle cx="75.35119665647781" cy="383.7660955662489" r="2" fill="#374151"/><circle cx="72.62235406900781" cy="408.05511974743854" r="2" fill="#374151"/><circle cx="73.83812249955524" cy="498.75165316541984" r="2" fill="#374151"/><circle cx="102.27648120642607" cy="341.9951570930837" r="2" fill="#374151"/><circle cx="71.32849943298991" cy="501.0295079091036" r="2" fill="#374151"/><circle cx="73.6997164088028" cy="396.1521016058307" r="2" fill="#374151"/><circle cx="71.54842954304335" cy="406.88158519451804" r="2" fill="#374151"/><circle cx="97.41176331203938" cy="232.42702910573917" r="2" fill="#374151"/><circle cx="93.41897820480091" cy="216.62139677178823" r="2" fill="#374151"/><circle cx="74.16878696732022" cy="455.2510071764316" r="2" fill="#374151"/><circle cx="76.18166846739219" cy="413.1646950750943" r="2" fill="#374151"/><circle cx="70.9736285951685" cy="356.8970608027548" r="2" fill="#374151"/><circle cx="73.31418150657893" cy="410.1340234603741" r="2" fill="#374151"/><circle cx="97.56072248559602" cy="361.8074095671355" r="2" fill="#374151"/><circle cx="85.90749227775524" cy="469.4955383804412" r="2" fill="#374151"/><circle cx="70.93723446463935" cy="404.7378193133596" r="2" fill="#374151"/><circle cx="119.15485700907001" cy="441.3421889425314" r="2" fill="#374151"/><circle cx="75.3491781578257" cy="475.090628263988" r="2" fill="#374151"/><circle cx="77.47437744314176" cy="148.45234742355473" r="2" fill="#374151"/><circle cx="71.03516965797668" cy="352.2345066771943" r="2" fill="#374151"/><circle cx="72.47781896772995" cy="476.2046331048505" r="2" fill="#374151"/><circle cx="85.21969332437678" cy="379.1384222147998" r="2" fill="#374151"/><circle cx="72.66904806802545" cy="430.11629678744634" r="2" fill="#374151"/><circle cx="73.59289874930361" cy="434.69115007282517" r="2" fill="#374151"/><circle cx="72.44286644587423" cy="482.97070322119515" r="2" fill="#374151"/><circle cx="364.9022279810666" cy="462.26436879201003" r="2" fill="#374151"/><circle cx="73.28637194709749" cy="427.637638361875" r="2" fill="#374151"/><circle cx="73.37691972982694" cy="452.713348858494" r="2" fill="#374151"/><circle cx="74.34461838118077" cy="380.9372196411952" r="2" fill="#374151"/><circle cx="70.06428466674568" cy="418.24445157421917" r="2" fill="#374151"/><circle cx="70.0774658972066" cy="423.0347777231781" r="2" fill="#374151"/><circle cx="76.47603151153007" cy="392.8895996925645" r="2" fill="#374151"/><circle cx="72.4858391370224" cy="399.7029836539544" r="2" fill="#374151"/><circle cx="109.35311992712916" cy="366.4645038801037" r="2" fill="#374151"/><circle cx="109.80010309445993" cy="421.600077708478" r="2" fill="#374151"/><circle cx="79.12841650320574" cy="382.12052642480785" r="2" fill="#374151"/><circle cx="72.56118780741723" cy="500.78019469309896" r="2" fill="#374151"/><circle cx="130.82628984809617" cy="526.7997392800035" r="2" fill="#374151"/><circle cx="160.72535514045927" cy="396.02820317574304" r="2" fill="#374151"/><circle cx="70.03055566116002" cy="421.7825131016084" r="2" fill="#374151"/><circle cx="75.38721311021548" cy="454.5838100715133" r="2" fill="#374151"/><circle cx="71.78621521544434" cy="499.347028814283" r="2" fill="#374151"/><circle cx="71.13244071311019" cy="363.41187796749176" r="2" fill="#374151"/><circle cx="74.59446996880745" cy="395.0044498742287" r="2" fill="#374151"/><circle cx="75.92544034637838" cy="367.3529845818276" r="2" fill="#374151"/><circle cx="71.55762905297223" cy="345.9996483655774" r="2" fill="#374151"/><circle cx="95.15836785100124" cy="395.20687966804235" r="2" fill="#374151"/><circle cx="90.13624274847146" cy="289.79714411281725" r="2" fill="#374151"/><circle cx="83.08876489443884" cy="473.98634698629957" r="2" fill="#374151"/><circle cx="76.5880317880754" cy="387.8851157773038" r="2" fill="#374151"/><circle cx="72.51581241088934" cy="473.95986112951397" r="2" fill="#374151"/><circle cx="72.51581241088934" cy="473.95986112951397" r="2" fill="#374151"/><circle cx="73.47026512117831" cy="418.6583757928523" r="2" fill="#374151"/><circle cx="109.61544010198588" cy="377.74514469337225" r="2" fill="#374151"/><circle cx="72.39036934731521" cy="436.0410679435384" r="2" fill="#374151"/><circle cx="74.01815311296072" cy="421.9643342861181" r="2" fill="#374151"/><circle cx="930.0" cy="630.0" r="2" fill="#374151"/><circle cx="85.07561986048655" cy="365.5344703103305" r="2" fill="#374151"/><circle cx="72.08749265687125" cy="353.03387537059075" r="2" fill="#374151"/><circle cx="73.97981684540028" cy="357.3904877098603" r="2" fill="#374151"/><circle cx="72.32381455644317" cy="435.22894786832535" r="2" fill="#374151"/><circle cx="82.60994137894218" cy="417.652202980285" r="2" fill="#374151"/><circle cx="72.58864720561618" cy="423.9120354200983" r="2" fill="#374151"/><circle cx="74.94866984137225" cy="483.6312780377135" r="2" fill="#374151"/><circle cx="72.73635284118352" cy="341.4755627052288" r="2" fill="#374151"/><circle cx="92.0672839471398" cy="362.80602816738383" r="2" fill="#374151"/><circle cx="70.25140693670525" cy="402.5325250204356" r="2" fill="#374151"/><circle cx="75.12940351466452" cy="473.78263454285275" r="2" fill="#374151"/><circle cx="71.64920427955114" cy="340.28714820341247" r="2" fill="#374151"/><circle cx="71.18882316384062" cy="339.22059861602946" r="2" fill="#374151"/><circle cx="72.40899389792419" cy="464.6602079197211" r="2" fill="#374151"/><circle cx="76.27679049808562" cy="316.71357010189564" r="2" fill="#374151"/><circle cx="73.14381677751543" cy="404.4466579678783" r="2" fill="#374151"/><circle cx="76.54991328492437" cy="174.42233669589137" r="2" fill="#374151"/><circle cx="70.87241867666592" cy="359.9374270831367" r="2" fill="#374151"/><circle cx="74.22032127042158" cy="392.82005412181616" r="2" fill="#374151"/><circle cx="95.36568899140778" cy="341.1848742446709" r="2" fill="#374151"/><circle cx="72.75134541372441" cy="426.3902924795588" r="2" fill="#374151"/><circle cx="74.99459300929081" cy="475.1624882842381" r="2" fill="#374151"/><circle cx="73.29365767667956" cy="504.2826816624107" r="2" fill="#374151"/><circle cx="73.0644120882044" cy="413.16007877215327" r="2" fill="#374151"/><circle cx="73.01739503772232" cy="417.28965114224025" r="2" fill="#374151"/><circle cx="72.01416823511627" cy="352.4847824450337" r="2" fill="#374151"/><circle cx="70.7109130029485" cy="368.9078536664932" r="2" fill="#374151"/><circle cx="204.7637320435784" cy="460.75416987156575" r="2" fill="#374151"/><circle cx="71.4608357102103" cy="497.28396116317754" r="2" fill="#374151"/><circle cx="75.43378658859831" cy="347.60043489211006" r="2" fill="#374151"/><circle cx="81.36632206542083" cy="185.35843244062795" r="2" fill="#374151"/><circle cx="72.15555911119746" cy="512.6392374332784" r="2" fill="#374151"/><circle cx="100.47725766506072" cy="409.6987407479229" r="2" fill="#374151"/><circle cx="71.82883419319394" cy="465.5694937090159" r="2" fill="#374151"/><circle cx="70.89502481193561" cy="359.82282330194164" r="2" fill="#374151"/><circle cx="71.54191591958684" cy="406.73982763633614" r="2" fill="#374151"/><circle cx="125.88564952031675" cy="355.56279136509744" r="2" fill="#374151"/><circle cx="72.47781896772995" cy="476.2046331048505" r="2" fill="#374151"/><circle cx="74.62928949129612" cy="394.17998413743067" r="2" fill="#374151"/><circle cx="110.72749149923521" cy="411.9204159650925" r="2" fill="#374151"/><circle cx="77.85844577876131" cy="212.45928154874207" r="2" fill="#374151"/><circle cx="74.43275578542824" cy="407.2912050581842" r="2" fill="#374151"/><circle cx="71.53622663041374" cy="407.40081819645116" r="2" fill="#374151"/><circle cx="70.7854514631794" cy="366.5122984465316" r="2" fill="#374151"/><circle cx="97.97461829616768" cy="212.57123775767894" r="2" fill="#374151"/><circle cx="70.67392249021384" cy="461.0037324275195" r="2" fill="#374151"/><circle cx="72.31225975318213" cy="418.0975675184468" r="2" fill="#374151"/><circle cx="70.05283855740494" cy="425.95782117755977" r="2" fill="#374151"/><circle cx="71.55762905297223" cy="345.9996483655774" r="2" fill="#374151"/><circle cx="72.56227374591371" cy="439.08631985540933" r="2" fill="#374151"/><circle cx="101.10332434654416" cy="359.8035688833235" r="2" fill="#374151"/><circle cx="70.0" cy="422.1096914809196" r="2" fill="#374151"/><circle cx="72.23639801651552" cy="424.1232805352376" r="2" fill="#374151"/><circle cx="80.16908821313002" cy="446.08756391127065" r="2" fill="#374151"/><circle cx="76.24169998139214" cy="399.0603489708658" r="2" fill="#374151"/><circle cx="182.3475080143383" cy="278.96458423090445" r="2" fill="#374151"/><circle cx="72.64210136853745" cy="385.5487593734975" r="2" fill="#374151"/><circle cx="74.80058884653663" cy="388.14207863072295" r="2" fill="#374151"/><circle cx="76.44021687168012" cy="404.5430201169601" r="2" fill="#374151"/><circle cx="76.47841434996583" cy="393.38082802914397" r="2" fill="#374151"/><circle cx="153.00699043531088" cy="396.6627679665105" r="2" fill="#374151"/><circle cx="76.20950630422146" cy="74.60225313779358" r="2" fill="#374151"/><circle cx="73.00191330473176" cy="323.20781176690014" r="2" fill="#374151"/><circle cx="76.5976169324937" cy="391.7817579576601" r="2" fill="#374151"/><circle cx="72.56442636138695" cy="316.9127500569799" r="2" fill="#374151"/><circle cx="87.2657367710714" cy="441.7815877855476" r="2" fill="#374151"/><circle cx="70.9961880176943" cy="348.08803616487864" r="2" fill="#374151"/><circle cx="80.98056631656732" cy="370.0857462273524" r="2" fill="#374151"/><circle cx="76.47344945415783" cy="399.0033407409287" r="2" fill="#374151"/><circle cx="78.14233642697377" cy="309.1924629631899" r="2" fill="#374151"/><circle cx="70.99363398541075" cy="358.16728375228314" r="2" fill="#374151"/><circle cx="76.50567008058898" cy="392.7758993927802" r="2" fill="#374151"/><circle cx="86.41795025204767" cy="459.1411565320992" r="2" fill="#374151"/><circle cx="71.53065967066843" cy="375.5801464624001" r="2" fill="#374151"/><circle cx="78.41616426615455" cy="305.8750815617952" r="2" fill="#374151"/><circle cx="97.00627369451769" cy="418.0225346335327" r="2" fill="#374151"/><circle cx="226.36012936810235" cy="228.45342192722728" r="2" fill="#374151"/><circle cx="76.58351324621013" cy="391.4079770391001" r="2" fill="#374151"/><circle cx="81.70501734108679" cy="79.65865998508525" r="2" fill="#374151"/><circle cx="72.83726663009134" cy="399.701476309363" r="2" fill="#374151"/><circle cx="94.01120146185733" cy="400.1798977091832" r="2" fill="#374151"/><circle cx="71.17782709565434" cy="412.909121217377" r="2" fill="#374151"/><circle cx="73.33010081582617" cy="441.402777958162" r="2" fill="#374151"/><circle cx="79.82919018739908" cy="453.63822443059064" r="2" fill="#374151"/><circle cx="72.81839774326097" cy="511.5667013074909" r="2" fill="#374151"/><circle cx="74.72711041212747" cy="506.3341609141569" r="2" fill="#374151"/><circle cx="77.27541356925107" cy="428.2890434895602" r="2" fill="#374151"/><circle cx="104.49377753179246" cy="147.28412211429048" r="2" fill="#374151"/><circle cx="232.9157045772755" cy="331.2574125680239" r="2" fill="#374151"/><text x="470" y="670" font-size="12" fill="#111827">PC1 score</text><text x="5" y="350" font-size="12" fill="#111827">PC2 score</text></svg>
